inDegrees=yes
name=ik_S53_A07_T02
DataType=double
version=3
OpenSimVersion=4.3-2021-08-27-4bc7ad9
endheader
time	pelvis_tilt	pelvis_list	pelvis_rotation	pelvis_tx	pelvis_ty	pelvis_tz	hip_flexion_r	hip_adduction_r	hip_rotation_r	knee_angle_r	knee_angle_r_beta	ankle_angle_r	subtalar_angle_r	mtp_angle_r	hip_flexion_l	hip_adduction_l	hip_rotation_l	knee_angle_l	knee_angle_l_beta	ankle_angle_l	subtalar_angle_l	mtp_angle_l	lumbar_extension	lumbar_bending	lumbar_rotation	arm_flex_r	arm_add_r	arm_rot_r	elbow_flex_r	pro_sup_r	wrist_flex_r	wrist_dev_r	arm_flex_l	arm_add_l	arm_rot_l	elbow_flex_l	pro_sup_l	wrist_flex_l	wrist_dev_l
20.13333333333347	-5.170306831823142	-4.586653179665064	34.36095082623699	0	0.9399999999999999	0	37.75106627461202	-10.12910199782021	-9.736471952395311	48.26051289663224	0.8423048487474183	0	0	0	37.75106627461202	-10.12910199782021	-9.736471952395311	48.26051289663224	0.8423048487474183	0	0	0	-5.048578242309121	-1.469174819892256	7.830525249982259	60.66646239300763	-6.612075723885602	-1.042363100581792	47.64833508953458	134.1587404374235	0	0	35.72072416926225	-10.86682937686818	9.506833983449244	36.27835163239846	114.9418344256322	0	0
20.15000000000014	-5.196994348022061	-4.638419874098768	34.4316111251245	0	0.9399999999999999	0	37.75275603575045	-10.12899893715416	-9.736607378691405	48.26157700512133	0.8423234209441515	0	0	0	37.75275603575045	-10.12899893715416	-9.736607378691405	48.26157700512133	0.8423234209441515	0	0	0	-5.098794368693896	-1.499239012656673	7.849189735117281	60.81669244128626	-6.758799645972674	-1.248906021700913	48.4152970012698	134.2165506528575	0	0	35.84747482957353	-10.83328351056934	9.47465509963793	36.29505075887214	115.0056252073283	0	0
20.1666666666668	-5.196903696501034	-4.657380661515164	34.31785633211324	0	0.9399999999999999	0	37.75592820938846	-10.12880498695974	-9.736862069630734	48.26356818359169	0.842358173564454	0	0	0	37.75592820938846	-10.12880498695974	-9.736862069630734	48.26356818359169	0.842358173564454	0	0	0	-5.092762215752304	-1.548441041457603	8.099021640448829	58.76603670229948	-7.3556651510266	-2.020850701854207	50.52505408871244	134.395361538544	0	0	35.92578751906613	-10.78508610228218	9.620485217191417	36.2582517270756	114.8679722060325	0	0
20.18333333333347	-5.197320312820754	-4.665956060878868	34.35487817071905	0	0.9399999999999999	0	37.7585109225242	-10.12864657423025	-9.737069895897296	48.26518332656017	0.8423863631271444	0	0	0	37.7585109225242	-10.12864657423025	-9.737069895897296	48.26518332656017	0.8423863631271444	0	0	0	-5.10024058444645	-1.551028844554425	8.067724139004765	58.80591881813776	-7.437086852448164	-2.165073714552083	51.3356079643558	134.8826621517976	0	0	35.88004551425077	-10.69272463028931	9.216135452222522	36.3379682214729	115.1189686089435	0	0
20.20000000000013	-5.208696352758636	-4.682755746461621	34.12324503006688	0	0.9399999999999999	0	37.76171386120706	-10.12845196019773	-9.737326085225067	48.26720266622752	0.8424216072530558	0	0	0	37.76171386120706	-10.12845196019773	-9.737326085225067	48.26720266622752	0.8424216072530558	0	0	0	-5.098193470817012	-1.603269308437849	8.394564844464657	56.7047622803361	-8.205563022279428	-2.972819514403063	54.16158996898817	135.5658488667265	0	0	35.87571386022088	-10.60559677459199	9.043154745231954	36.39507692676375	115.2070908099769	0	0
20.2166666666668	-5.232019371013839	-4.711437760066707	33.89065641351144	0	0.9399999999999999	0	37.76536415855595	-10.12822912478169	-9.73761901092629	48.26949166010601	0.8424615577327934	0	0	0	37.76536415855595	-10.12822912478169	-9.73761901092629	48.26949166010601	0.8424615577327934	0	0	0	-5.115151245724569	-1.650959236424637	8.675091998779944	54.56950239005633	-9.007500280602317	-3.712497026291615	56.81831443445848	135.9643113595011	0	0	35.84658283577127	-10.57328020687649	8.908250510106869	36.5161874134713	115.3003414304945	0	0
20.23333333333347	-5.25846996840523	-4.73316939530812	33.6919817382724	0	0.9399999999999999	0	37.76866729788021	-10.12802763022934	-9.737884000381875	48.27156246038203	0.8424977000157612	0	0	0	37.76866729788021	-10.12802763022934	-9.737884000381875	48.27156246038203	0.8424977000157612	0	0	0	-5.136237418262931	-1.681004210549279	8.877999416561156	52.36847183967171	-9.812172333425265	-4.273038114509804	59.1684255268639	135.9355134503386	0	0	35.79649459968913	-10.5030380624048	8.709022829033895	36.66636727884036	115.2776193651895	0	0
20.25000000000013	-5.281125777351364	-4.750884793566827	33.48475612330596	0	0.9399999999999999	0	37.77213026122116	-10.12781624314886	-9.738161987542371	48.27373002202773	0.8425355311032188	0	0	0	37.77213026122116	-10.12781624314886	-9.738161987542371	48.27373002202773	0.8425355311032188	0	0	0	-5.155014337798956	-1.70350320230528	9.030630234121535	50.06330612038045	-10.567570701686	-4.729018294972573	61.31698028407522	135.741293601984	0	0	35.72665504964264	-10.49009494476788	8.483380405756964	36.79081433503174	115.3827125161311	0	0
20.2666666666668	-5.289280762125662	-4.753396719554655	33.29792934535595	0	0.9399999999999999	0	37.77531320366588	-10.12762198077573	-9.738417514303121	48.27572086199985	0.8425702778156124	0	0	0	37.77531320366588	-10.12762198077573	-9.738417514303121	48.27572086199985	0.8425702778156124	0	0	0	-5.15346021719967	-1.722200503976304	9.185592865458885	47.63589739058838	-11.38990091473008	-5.201432887411124	63.15833616656072	135.5759140985116	0	0	35.62585019346992	-10.44610643348863	8.349751764716338	36.90982912861303	115.3231921467785	0	0
20.28333333333346	-5.304635585528938	-4.767401320785499	33.24410526023814	0	0.9399999999999999	0	37.78484689942582	-10.12716471229571	-9.739093788678939	48.28188601433168	0.8426778800226898	0	0	0	37.78484689942582	-10.12716471229571	-9.739093788678939	48.28188601433168	0.8426778800226898	0	0	0	-5.177276615771652	-1.721963010423357	9.156576938135949	47.67452316184536	-11.34030468940735	-5.15648165536571	63.17487713884157	135.5832602676886	0	0	35.64381131979927	-10.49009702909171	8.288047317173817	36.93365306306553	115.3072492744652	0	0
20.30000000000013	-5.335191370707682	-4.80440759724256	32.9770705741085	0	0.9399999999999999	0	37.78781743992058	-10.12698383837366	-9.739331989430667	48.2837434664301	0.8427102986775054	0	0	0	37.78781743992058	-10.12698383837366	-9.739331989430667	48.2837434664301	0.8427102986775054	0	0	0	-5.218753980521542	-1.746477968494661	9.229483489085601	45.4128281855139	-12.07647101724188	-5.484038390358269	64.6533950250089	135.4922346616812	0	0	35.62453175853969	-10.55077988207354	8.020579035583951	37.00053943740942	115.3847043793856	0	0
20.31666666666679	-5.366752730720246	-4.816817201950722	32.49238239577925	0	0.9399999999999999	0	37.79178107455594	-10.12674349471993	-9.739649033310974	48.28622881998538	0.8427536762801212	0	0	0	37.79178107455594	-10.12674349471993	-9.739649033310974	48.28622881998538	0.8427536762801212	0	0	0	-5.236223880908166	-1.768056689431952	9.523363914907897	40.52408924527796	-13.36888200878638	-6.288665462837762	69.68898196660381	134.7027395800905	0	0	35.61825898656315	-10.58934308883385	7.85802742772738	37.07458936962298	115.2874146218563	0	0
20.33333333333346	-5.388777702014607	-4.840113899451212	32.3543927279063	0	0.9399999999999999	0	37.79359278688447	-10.12663419068028	-9.739793485023734	48.28736969771789	0.8427735883529163	0	0	0	37.79359278688447	-10.12663419068028	-9.739793485023734	48.28736969771789	0.8427735883529163	0	0	0	-5.272329904349635	-1.766879792323915	9.458134707978303	40.62436076674808	-13.25090170079056	-6.128840364044383	69.71274546873528	134.7176793591674	0	0	35.44727724072636	-10.63994783916615	7.636157761415681	37.29438089319613	115.2999927697998	0	0
20.35000000000013	-5.388220592384132	-4.8358450753032	32.16708278350183	0	0.9399999999999999	0	37.79682680703203	-10.12643751904316	-9.740052728142384	48.28938938597675	0.8428088385628971	0	0	0	37.79682680703203	-10.12643751904316	-9.740052728142384	48.28938938597675	0.8428088385628971	0	0	0	-5.259652306009448	-1.78293515438317	9.637384404648939	38.08824745157983	-13.86306575020879	-6.695404244519092	69.6505110716311	135.8654205763947	0	0	35.3555562793666	-10.57099153206298	7.626236947071676	37.38913462439039	115.3500722097526	0	0
